<svg width="224" height="76" viewBox="0 0 224 76" fill="none" xmlns="http://www.w3.org/2000/svg">
<rect width="224" height="76" rx="38" fill="#6A6A6A" fill-opacity="0.45"/>
<path d="M52.7236 22.78C52.5636 22.5933 52.3503 22.4133 52.0836 22.24C51.8169 22.0667 51.5169 21.9133 51.1836 21.78C50.8503 21.6333 50.4836 21.52 50.0836 21.44C49.6969 21.3467 49.2903 21.3 48.8636 21.3C47.7703 21.3 46.9636 21.5067 46.4436 21.92C45.9236 22.3333 45.6636 22.9 45.6636 23.62C45.6636 24.1267 45.7969 24.5267 46.0636 24.82C46.3303 25.1133 46.7369 25.3533 47.2836 25.54C47.8436 25.7267 48.5503 25.92 49.4036 26.12C50.3903 26.3333 51.2436 26.5933 51.9636 26.9C52.6836 27.2067 53.2369 27.62 53.6236 28.14C54.0103 28.6467 54.2036 29.3267 54.2036 30.18C54.2036 30.86 54.0703 31.4533 53.8036 31.96C53.5503 32.4533 53.1903 32.8667 52.7236 33.2C52.2569 33.52 51.7103 33.76 51.0836 33.92C50.4569 34.0667 49.7769 34.14 49.0436 34.14C48.3236 34.14 47.6169 34.0667 46.9236 33.92C46.2436 33.76 45.5969 33.5333 44.9836 33.24C44.3703 32.9467 43.7969 32.58 43.2636 32.14L44.1236 30.62C44.3369 30.8467 44.6103 31.0733 44.9436 31.3C45.2903 31.5133 45.6769 31.7133 46.1036 31.9C46.5436 32.0867 47.0169 32.24 47.5236 32.36C48.0303 32.4667 48.5503 32.52 49.0836 32.52C50.0969 32.52 50.8836 32.34 51.4436 31.98C52.0036 31.6067 52.2836 31.0667 52.2836 30.36C52.2836 29.8267 52.1236 29.4 51.8036 29.08C51.4969 28.76 51.0369 28.4933 50.4236 28.28C49.8103 28.0667 49.0636 27.8533 48.1836 27.64C47.2236 27.4 46.4169 27.14 45.7636 26.86C45.1103 26.5667 44.6169 26.1867 44.2836 25.72C43.9636 25.2533 43.8036 24.6467 43.8036 23.9C43.8036 22.9933 44.0236 22.2267 44.4636 21.6C44.9036 20.9733 45.5103 20.5 46.2836 20.18C47.0569 19.86 47.9303 19.7 48.9036 19.7C49.5436 19.7 50.1369 19.7667 50.6836 19.9C51.2436 20.0333 51.7636 20.22 52.2436 20.46C52.7236 20.7 53.1636 20.9867 53.5636 21.32L52.7236 22.78ZM60.9111 34.2C60.1244 34.2 59.4044 34.06 58.7511 33.78C58.1111 33.4867 57.5511 33.0933 57.0711 32.6C56.6044 32.0933 56.2378 31.5133 55.9711 30.86C55.7178 30.2067 55.5911 29.5133 55.5911 28.78C55.5911 27.7933 55.8178 26.8933 56.2711 26.08C56.7244 25.2667 57.3511 24.6133 58.1511 24.12C58.9644 23.6267 59.8911 23.38 60.9311 23.38C61.9844 23.38 62.8978 23.6333 63.6711 24.14C64.4578 24.6333 65.0644 25.2867 65.4911 26.1C65.9311 26.9 66.1511 27.7667 66.1511 28.7C66.1511 28.8333 66.1444 28.9667 66.1311 29.1C66.1311 29.22 66.1244 29.3133 66.1111 29.38H57.4511C57.5044 30.06 57.6911 30.6667 58.0111 31.2C58.3444 31.72 58.7711 32.1333 59.2911 32.44C59.8111 32.7333 60.3711 32.88 60.9711 32.88C61.6111 32.88 62.2111 32.72 62.7711 32.4C63.3444 32.08 63.7378 31.66 63.9511 31.14L65.4711 31.56C65.2444 32.0667 64.9044 32.52 64.4511 32.92C64.0111 33.32 63.4844 33.6333 62.8711 33.86C62.2711 34.0867 61.6178 34.2 60.9111 34.2ZM57.3911 28.16H64.5111C64.4578 27.48 64.2644 26.88 63.9311 26.36C63.5978 25.84 63.1711 25.4333 62.6511 25.14C62.1311 24.8467 61.5578 24.7 60.9311 24.7C60.3178 24.7 59.7511 24.8467 59.2311 25.14C58.7111 25.4333 58.2844 25.84 57.9511 26.36C57.6311 26.88 57.4444 27.48 57.3911 28.16ZM72.7275 34.2C71.9408 34.2 71.2208 34.06 70.5675 33.78C69.9275 33.4867 69.3675 33.0933 68.8875 32.6C68.4208 32.0933 68.0542 31.5133 67.7875 30.86C67.5342 30.2067 67.4075 29.5133 67.4075 28.78C67.4075 27.7933 67.6342 26.8933 68.0875 26.08C68.5408 25.2667 69.1675 24.6133 69.9675 24.12C70.7808 23.6267 71.7075 23.38 72.7475 23.38C73.8008 23.38 74.7142 23.6333 75.4875 24.14C76.2742 24.6333 76.8808 25.2867 77.3075 26.1C77.7475 26.9 77.9675 27.7667 77.9675 28.7C77.9675 28.8333 77.9608 28.9667 77.9475 29.1C77.9475 29.22 77.9408 29.3133 77.9275 29.38H69.2675C69.3208 30.06 69.5075 30.6667 69.8275 31.2C70.1608 31.72 70.5875 32.1333 71.1075 32.44C71.6275 32.7333 72.1875 32.88 72.7875 32.88C73.4275 32.88 74.0275 32.72 74.5875 32.4C75.1608 32.08 75.5542 31.66 75.7675 31.14L77.2875 31.56C77.0608 32.0667 76.7208 32.52 76.2675 32.92C75.8275 33.32 75.3008 33.6333 74.6875 33.86C74.0875 34.0867 73.4342 34.2 72.7275 34.2ZM69.2075 28.16H76.3275C76.2742 27.48 76.0808 26.88 75.7475 26.36C75.4142 25.84 74.9875 25.4333 74.4675 25.14C73.9475 24.8467 73.3742 24.7 72.7475 24.7C72.1342 24.7 71.5675 24.8467 71.0475 25.14C70.5275 25.4333 70.1008 25.84 69.7675 26.36C69.4475 26.88 69.2608 27.48 69.2075 28.16ZM84.3425 26.8C84.3425 25.9333 84.4892 25.0867 84.7825 24.26C85.0892 23.42 85.5292 22.66 86.1025 21.98C86.6892 21.2867 87.4025 20.74 88.2425 20.34C89.0825 19.9267 90.0358 19.72 91.1025 19.72C92.3692 19.72 93.4558 20.0133 94.3625 20.6C95.2692 21.1733 95.9425 21.9133 96.3825 22.82L94.9625 23.74C94.6825 23.14 94.3225 22.6667 93.8825 22.32C93.4558 21.96 92.9892 21.7067 92.4825 21.56C91.9892 21.4133 91.5025 21.34 91.0225 21.34C90.2358 21.34 89.5358 21.5 88.9225 21.82C88.3225 22.14 87.8158 22.5667 87.4025 23.1C86.9892 23.6333 86.6758 24.2333 86.4625 24.9C86.2625 25.5533 86.1625 26.2133 86.1625 26.88C86.1625 27.6133 86.2825 28.32 86.5225 29C86.7758 29.68 87.1225 30.28 87.5625 30.8C88.0025 31.32 88.5225 31.7333 89.1225 32.04C89.7225 32.3467 90.3758 32.5 91.0825 32.5C91.5758 32.5 92.0825 32.4133 92.6025 32.24C93.1225 32.0667 93.6092 31.8 94.0625 31.44C94.5158 31.0667 94.8758 30.5867 95.1425 30L96.6425 30.82C96.3492 31.5267 95.8958 32.1267 95.2825 32.62C94.6692 33.1133 93.9825 33.4867 93.2225 33.74C92.4758 33.9933 91.7358 34.12 91.0025 34.12C90.0292 34.12 89.1358 33.9133 88.3225 33.5C87.5092 33.0733 86.8025 32.5133 86.2025 31.82C85.6158 31.1133 85.1558 30.3267 84.8225 29.46C84.5025 28.58 84.3425 27.6933 84.3425 26.8ZM103.175 34.2C102.389 34.2 101.675 34.06 101.035 33.78C100.395 33.4867 99.842 33.0933 99.3753 32.6C98.9086 32.0933 98.5486 31.5133 98.2953 30.86C98.042 30.2067 97.9153 29.52 97.9153 28.8C97.9153 28.0667 98.042 27.3733 98.2953 26.72C98.5486 26.0667 98.9086 25.4933 99.3753 25C99.842 24.4933 100.395 24.1 101.035 23.82C101.689 23.5267 102.402 23.38 103.175 23.38C103.962 23.38 104.675 23.5267 105.315 23.82C105.955 24.1 106.509 24.4933 106.975 25C107.455 25.4933 107.822 26.0667 108.075 26.72C108.329 27.3733 108.455 28.0667 108.455 28.8C108.455 29.52 108.329 30.2067 108.075 30.86C107.822 31.5133 107.462 32.0933 106.995 32.6C106.529 33.0933 105.969 33.4867 105.315 33.78C104.675 34.06 103.962 34.2 103.175 34.2ZM99.7153 28.82C99.7153 29.54 99.8686 30.1933 100.175 30.78C100.495 31.3667 100.915 31.8333 101.435 32.18C101.955 32.5133 102.535 32.68 103.175 32.68C103.815 32.68 104.395 32.5067 104.915 32.16C105.449 31.8133 105.869 31.3467 106.175 30.76C106.495 30.16 106.655 29.5 106.655 28.78C106.655 28.06 106.495 27.4067 106.175 26.82C105.869 26.2333 105.449 25.7667 104.915 25.42C104.395 25.0733 103.815 24.9 103.175 24.9C102.535 24.9 101.955 25.08 101.435 25.44C100.915 25.7867 100.495 26.2533 100.175 26.84C99.8686 27.4267 99.7153 28.0867 99.7153 28.82ZM126.328 34H124.568V28.16C124.568 27.0667 124.388 26.26 124.028 25.74C123.681 25.22 123.161 24.96 122.468 24.96C121.761 24.96 121.121 25.22 120.548 25.74C119.975 26.2467 119.568 26.9067 119.328 27.72V34H117.568V28.16C117.568 27.0533 117.395 26.2467 117.048 25.74C116.701 25.22 116.181 24.96 115.488 24.96C114.795 24.96 114.155 25.2133 113.568 25.72C112.995 26.2133 112.588 26.8733 112.348 27.7V34H110.588V23.56H112.188V25.8C112.615 25.0267 113.168 24.4333 113.848 24.02C114.528 23.5933 115.295 23.38 116.148 23.38C117.015 23.38 117.708 23.62 118.228 24.1C118.748 24.5667 119.068 25.1733 119.188 25.92C119.655 25.0933 120.221 24.4667 120.888 24.04C121.555 23.6 122.315 23.38 123.168 23.38C123.768 23.38 124.268 23.4933 124.668 23.72C125.081 23.9333 125.408 24.24 125.648 24.64C125.888 25.0267 126.061 25.4867 126.168 26.02C126.275 26.5533 126.328 27.1333 126.328 27.76V34ZM134.685 34.2C133.831 34.2 133.071 33.9867 132.405 33.56C131.738 33.1333 131.211 32.5933 130.825 31.94V38.26H129.065V23.56H130.625V25.52C131.038 24.88 131.578 24.3667 132.245 23.98C132.911 23.58 133.638 23.38 134.425 23.38C135.145 23.38 135.805 23.5267 136.405 23.82C137.005 24.1133 137.525 24.5133 137.965 25.02C138.405 25.5267 138.745 26.1067 138.985 26.76C139.238 27.4 139.365 28.0733 139.365 28.78C139.365 29.7667 139.165 30.6733 138.765 31.5C138.378 32.3267 137.831 32.9867 137.125 33.48C136.418 33.96 135.605 34.2 134.685 34.2ZM134.145 32.68C134.665 32.68 135.131 32.5733 135.545 32.36C135.971 32.1333 136.331 31.84 136.625 31.48C136.931 31.1067 137.165 30.6867 137.325 30.22C137.485 29.7533 137.565 29.2733 137.565 28.78C137.565 28.26 137.471 27.7667 137.285 27.3C137.111 26.8333 136.858 26.42 136.525 26.06C136.205 25.7 135.825 25.42 135.385 25.22C134.958 25.0067 134.491 24.9 133.985 24.9C133.665 24.9 133.331 24.96 132.985 25.08C132.651 25.2 132.331 25.3733 132.025 25.6C131.718 25.8133 131.458 26.06 131.245 26.34C131.031 26.62 130.891 26.92 130.825 27.24V30.22C131.025 30.6733 131.291 31.0867 131.625 31.46C131.958 31.8333 132.345 32.1333 132.785 32.36C133.225 32.5733 133.678 32.68 134.145 32.68ZM141.565 19.4H143.325V31.3C143.325 31.8733 143.405 32.2267 143.565 32.36C143.725 32.4933 143.919 32.56 144.145 32.56C144.425 32.56 144.692 32.5333 144.945 32.48C145.199 32.4133 145.412 32.3467 145.585 32.28L145.865 33.72C145.572 33.84 145.225 33.94 144.825 34.02C144.425 34.1 144.072 34.14 143.765 34.14C143.085 34.14 142.545 33.9467 142.145 33.56C141.759 33.1733 141.565 32.6333 141.565 31.94V19.4ZM151.868 34.2C151.081 34.2 150.361 34.06 149.708 33.78C149.068 33.4867 148.508 33.0933 148.028 32.6C147.561 32.0933 147.195 31.5133 146.928 30.86C146.675 30.2067 146.548 29.5133 146.548 28.78C146.548 27.7933 146.775 26.8933 147.228 26.08C147.681 25.2667 148.308 24.6133 149.108 24.12C149.921 23.6267 150.848 23.38 151.888 23.38C152.941 23.38 153.855 23.6333 154.628 24.14C155.415 24.6333 156.021 25.2867 156.448 26.1C156.888 26.9 157.108 27.7667 157.108 28.7C157.108 28.8333 157.101 28.9667 157.088 29.1C157.088 29.22 157.081 29.3133 157.068 29.38H148.408C148.461 30.06 148.648 30.6667 148.968 31.2C149.301 31.72 149.728 32.1333 150.248 32.44C150.768 32.7333 151.328 32.88 151.928 32.88C152.568 32.88 153.168 32.72 153.728 32.4C154.301 32.08 154.695 31.66 154.908 31.14L156.428 31.56C156.201 32.0667 155.861 32.52 155.408 32.92C154.968 33.32 154.441 33.6333 153.828 33.86C153.228 34.0867 152.575 34.2 151.868 34.2ZM148.348 28.16H155.468C155.415 27.48 155.221 26.88 154.888 26.36C154.555 25.84 154.128 25.4333 153.608 25.14C153.088 24.8467 152.515 24.7 151.888 24.7C151.275 24.7 150.708 24.8467 150.188 25.14C149.668 25.4333 149.241 25.84 148.908 26.36C148.588 26.88 148.401 27.48 148.348 28.16ZM164.367 33.48C164.22 33.5467 164.02 33.6333 163.767 33.74C163.514 33.8467 163.22 33.94 162.887 34.02C162.554 34.1 162.2 34.14 161.827 34.14C161.4 34.14 161.007 34.0667 160.647 33.92C160.287 33.76 160 33.52 159.787 33.2C159.574 32.8667 159.467 32.4533 159.467 31.96V24.94H158.047V23.56H159.467V20.08H161.227V23.56H163.567V24.94H161.227V31.42C161.254 31.7933 161.38 32.0733 161.607 32.26C161.834 32.4333 162.1 32.52 162.407 32.52C162.754 32.52 163.074 32.46 163.367 32.34C163.66 32.22 163.854 32.1333 163.947 32.08L164.367 33.48ZM170.481 34.2C169.695 34.2 168.975 34.06 168.321 33.78C167.681 33.4867 167.121 33.0933 166.641 32.6C166.175 32.0933 165.808 31.5133 165.541 30.86C165.288 30.2067 165.161 29.5133 165.161 28.78C165.161 27.7933 165.388 26.8933 165.841 26.08C166.295 25.2667 166.921 24.6133 167.721 24.12C168.535 23.6267 169.461 23.38 170.501 23.38C171.555 23.38 172.468 23.6333 173.241 24.14C174.028 24.6333 174.635 25.2867 175.061 26.1C175.501 26.9 175.721 27.7667 175.721 28.7C175.721 28.8333 175.715 28.9667 175.701 29.1C175.701 29.22 175.695 29.3133 175.681 29.38H167.021C167.075 30.06 167.261 30.6667 167.581 31.2C167.915 31.72 168.341 32.1333 168.861 32.44C169.381 32.7333 169.941 32.88 170.541 32.88C171.181 32.88 171.781 32.72 172.341 32.4C172.915 32.08 173.308 31.66 173.521 31.14L175.041 31.56C174.815 32.0667 174.475 32.52 174.021 32.92C173.581 33.32 173.055 33.6333 172.441 33.86C171.841 34.0867 171.188 34.2 170.481 34.2ZM166.961 28.16H174.081C174.028 27.48 173.835 26.88 173.501 26.36C173.168 25.84 172.741 25.4333 172.221 25.14C171.701 24.8467 171.128 24.7 170.501 24.7C169.888 24.7 169.321 24.8467 168.801 25.14C168.281 25.4333 167.855 25.84 167.521 26.36C167.201 26.88 167.015 27.48 166.961 28.16ZM43.7 57V42.8H45.5V55.4H53.42V57H43.7ZM59.5634 57.2C58.7768 57.2 58.0568 57.06 57.4034 56.78C56.7634 56.4867 56.2034 56.0933 55.7234 55.6C55.2568 55.0933 54.8901 54.5133 54.6234 53.86C54.3701 53.2067 54.2434 52.5133 54.2434 51.78C54.2434 50.7933 54.4701 49.8933 54.9234 49.08C55.3768 48.2667 56.0034 47.6133 56.8034 47.12C57.6168 46.6267 58.5434 46.38 59.5834 46.38C60.6368 46.38 61.5501 46.6333 62.3234 47.14C63.1101 47.6333 63.7168 48.2867 64.1434 49.1C64.5834 49.9 64.8034 50.7667 64.8034 51.7C64.8034 51.8333 64.7968 51.9667 64.7834 52.1C64.7834 52.22 64.7768 52.3133 64.7634 52.38H56.1034C56.1568 53.06 56.3434 53.6667 56.6634 54.2C56.9968 54.72 57.4234 55.1333 57.9434 55.44C58.4634 55.7333 59.0234 55.88 59.6234 55.88C60.2634 55.88 60.8634 55.72 61.4234 55.4C61.9968 55.08 62.3901 54.66 62.6034 54.14L64.1234 54.56C63.8968 55.0667 63.5568 55.52 63.1034 55.92C62.6634 56.32 62.1368 56.6333 61.5234 56.86C60.9234 57.0867 60.2701 57.2 59.5634 57.2ZM56.0434 51.16H63.1634C63.1101 50.48 62.9168 49.88 62.5834 49.36C62.2501 48.84 61.8234 48.4333 61.3034 48.14C60.7834 47.8467 60.2101 47.7 59.5834 47.7C58.9701 47.7 58.4034 47.8467 57.8834 48.14C57.3634 48.4333 56.9368 48.84 56.6034 49.36C56.2834 49.88 56.0968 50.48 56.0434 51.16ZM69.4864 57L65.3864 46.56H67.2264L70.5064 55.32L73.7864 46.56H75.5064L71.4064 57H69.4864ZM81.5361 57.2C80.7494 57.2 80.0294 57.06 79.3761 56.78C78.7361 56.4867 78.1761 56.0933 77.6961 55.6C77.2294 55.0933 76.8628 54.5133 76.5961 53.86C76.3428 53.2067 76.2161 52.5133 76.2161 51.78C76.2161 50.7933 76.4428 49.8933 76.8961 49.08C77.3494 48.2667 77.9761 47.6133 78.7761 47.12C79.5894 46.6267 80.5161 46.38 81.5561 46.38C82.6094 46.38 83.5228 46.6333 84.2961 47.14C85.0828 47.6333 85.6894 48.2867 86.1161 49.1C86.5561 49.9 86.7761 50.7667 86.7761 51.7C86.7761 51.8333 86.7694 51.9667 86.7561 52.1C86.7561 52.22 86.7494 52.3133 86.7361 52.38H78.0761C78.1294 53.06 78.3161 53.6667 78.6361 54.2C78.9694 54.72 79.3961 55.1333 79.9161 55.44C80.4361 55.7333 80.9961 55.88 81.5961 55.88C82.2361 55.88 82.8361 55.72 83.3961 55.4C83.9694 55.08 84.3628 54.66 84.5761 54.14L86.0961 54.56C85.8694 55.0667 85.5294 55.52 85.0761 55.92C84.6361 56.32 84.1094 56.6333 83.4961 56.86C82.8961 57.0867 82.2428 57.2 81.5361 57.2ZM78.0161 51.16H85.1361C85.0828 50.48 84.8894 49.88 84.5561 49.36C84.2228 48.84 83.7961 48.4333 83.2761 48.14C82.7561 47.8467 82.1828 47.7 81.5561 47.7C80.9428 47.7 80.3761 47.8467 79.8561 48.14C79.3361 48.4333 78.9094 48.84 78.5761 49.36C78.2561 49.88 78.0694 50.48 78.0161 51.16ZM88.7725 42.4H90.5325V54.3C90.5325 54.8733 90.6125 55.2267 90.7725 55.36C90.9325 55.4933 91.1258 55.56 91.3525 55.56C91.6325 55.56 91.8992 55.5333 92.1525 55.48C92.4058 55.4133 92.6192 55.3467 92.7925 55.28L93.0725 56.72C92.7792 56.84 92.4325 56.94 92.0325 57.02C91.6325 57.1 91.2792 57.14 90.9725 57.14C90.2925 57.14 89.7525 56.9467 89.3525 56.56C88.9658 56.1733 88.7725 55.6333 88.7725 54.94V42.4ZM102.883 42.8H104.403L110.203 57H108.283L106.603 52.84H100.643L98.9833 57H97.0633L102.883 42.8ZM106.203 51.44L103.643 44.88L101.003 51.44H106.203ZM120.878 57H119.118V51.16C119.118 50.0533 118.945 49.2467 118.598 48.74C118.265 48.22 117.752 47.96 117.058 47.96C116.578 47.96 116.098 48.08 115.618 48.32C115.152 48.56 114.732 48.8867 114.358 49.3C113.998 49.7 113.738 50.1667 113.578 50.7V57H111.818V46.56H113.418V48.8C113.698 48.3067 114.058 47.88 114.498 47.52C114.938 47.16 115.438 46.88 115.998 46.68C116.558 46.48 117.145 46.38 117.758 46.38C118.358 46.38 118.858 46.4933 119.258 46.72C119.672 46.9333 119.992 47.24 120.218 47.64C120.458 48.0267 120.625 48.4867 120.718 49.02C120.825 49.5533 120.878 50.1333 120.878 50.76V57ZM122.795 53.98C122.795 53.3133 122.982 52.74 123.355 52.26C123.742 51.7667 124.269 51.3867 124.935 51.12C125.602 50.8533 126.375 50.72 127.255 50.72C127.722 50.72 128.215 50.76 128.735 50.84C129.255 50.9067 129.715 51.0133 130.115 51.16V50.4C130.115 49.6 129.875 48.9733 129.395 48.52C128.915 48.0533 128.235 47.82 127.355 47.82C126.782 47.82 126.229 47.9267 125.695 48.14C125.175 48.34 124.622 48.6333 124.035 49.02L123.395 47.78C124.075 47.3133 124.755 46.9667 125.435 46.74C126.115 46.5 126.822 46.38 127.555 46.38C128.889 46.38 129.942 46.7533 130.715 47.5C131.489 48.2333 131.875 49.26 131.875 50.58V55C131.875 55.2133 131.915 55.3733 131.995 55.48C132.089 55.5733 132.235 55.6267 132.435 55.64V57C132.262 57.0267 132.109 57.0467 131.975 57.06C131.855 57.0733 131.755 57.08 131.675 57.08C131.262 57.08 130.949 56.9667 130.735 56.74C130.535 56.5133 130.422 56.2733 130.395 56.02L130.355 55.36C129.902 55.9467 129.309 56.4 128.575 56.72C127.842 57.04 127.115 57.2 126.395 57.2C125.702 57.2 125.082 57.06 124.535 56.78C123.989 56.4867 123.562 56.1 123.255 55.62C122.949 55.1267 122.795 54.58 122.795 53.98ZM129.595 54.72C129.755 54.5333 129.882 54.3467 129.975 54.16C130.069 53.96 130.115 53.7933 130.115 53.66V52.36C129.702 52.2 129.269 52.08 128.815 52C128.362 51.9067 127.915 51.86 127.475 51.86C126.582 51.86 125.855 52.04 125.295 52.4C124.749 52.7467 124.475 53.2267 124.475 53.84C124.475 54.1733 124.562 54.5 124.735 54.82C124.922 55.1267 125.189 55.38 125.535 55.58C125.895 55.78 126.335 55.88 126.855 55.88C127.402 55.88 127.922 55.7733 128.415 55.56C128.909 55.3333 129.302 55.0533 129.595 54.72ZM134.73 42.4H136.49V54.3C136.49 54.8733 136.57 55.2267 136.73 55.36C136.89 55.4933 137.083 55.56 137.31 55.56C137.59 55.56 137.856 55.5333 138.11 55.48C138.363 55.4133 138.576 55.3467 138.75 55.28L139.03 56.72C138.736 56.84 138.39 56.94 137.99 57.02C137.59 57.1 137.236 57.14 136.93 57.14C136.25 57.14 135.71 56.9467 135.31 56.56C134.923 56.1733 134.73 55.6333 134.73 54.94V42.4ZM140.521 59.84C140.694 59.8533 140.868 59.8667 141.041 59.88C141.214 59.9067 141.348 59.92 141.441 59.92C141.654 59.92 141.841 59.8467 142.001 59.7C142.161 59.5533 142.334 59.2667 142.521 58.84C142.721 58.4267 142.974 57.8133 143.281 57L138.861 46.56H140.721L144.241 55.22L147.421 46.56H149.161L144.081 59.74C143.961 60.0467 143.781 60.3333 143.541 60.6C143.314 60.88 143.021 61.1 142.661 61.26C142.301 61.42 141.868 61.5 141.361 61.5C141.241 61.5 141.114 61.4933 140.981 61.48C140.861 61.4667 140.708 61.44 140.521 61.4V59.84ZM156.34 56.48C156.193 56.5467 155.993 56.6333 155.74 56.74C155.486 56.8467 155.193 56.94 154.86 57.02C154.526 57.1 154.173 57.14 153.8 57.14C153.373 57.14 152.98 57.0667 152.62 56.92C152.26 56.76 151.973 56.52 151.76 56.2C151.546 55.8667 151.44 55.4533 151.44 54.96V47.94H150.02V46.56H151.44V43.08H153.2V46.56H155.54V47.94H153.2V54.42C153.226 54.7933 153.353 55.0733 153.58 55.26C153.806 55.4333 154.073 55.52 154.38 55.52C154.726 55.52 155.046 55.46 155.34 55.34C155.633 55.22 155.826 55.1333 155.92 55.08L156.34 56.48ZM157.971 57V46.56H159.731V57H157.971ZM157.971 44.6V42.4H159.731V44.6H157.971ZM167.2 57.2C166.413 57.2 165.693 57.06 165.04 56.78C164.4 56.4867 163.84 56.0867 163.36 55.58C162.893 55.0733 162.527 54.4933 162.26 53.84C162.007 53.1867 161.88 52.4933 161.88 51.76C161.88 50.7733 162.1 49.8733 162.54 49.06C162.98 48.2467 163.6 47.6 164.4 47.12C165.2 46.6267 166.127 46.38 167.18 46.38C168.207 46.38 169.1 46.6133 169.86 47.08C170.633 47.5333 171.207 48.1467 171.58 48.92L169.86 49.46C169.593 48.9667 169.22 48.5867 168.74 48.32C168.26 48.04 167.727 47.9 167.14 47.9C166.5 47.9 165.913 48.0667 165.38 48.4C164.86 48.7333 164.447 49.1933 164.14 49.78C163.833 50.3533 163.68 51.0133 163.68 51.76C163.68 52.4933 163.833 53.16 164.14 53.76C164.46 54.3467 164.88 54.8133 165.4 55.16C165.933 55.5067 166.52 55.68 167.16 55.68C167.573 55.68 167.967 55.6067 168.34 55.46C168.727 55.3133 169.06 55.12 169.34 54.88C169.633 54.6267 169.833 54.3533 169.94 54.06L171.66 54.58C171.447 55.0867 171.12 55.54 170.68 55.94C170.253 56.3267 169.74 56.6333 169.14 56.86C168.553 57.0867 167.907 57.2 167.2 57.2ZM177.234 57.2C176.368 57.2 175.554 57.06 174.794 56.78C174.034 56.4867 173.381 56.0533 172.834 55.48L173.514 54.24C174.114 54.8 174.714 55.2 175.314 55.44C175.914 55.68 176.528 55.8 177.154 55.8C177.874 55.8 178.461 55.6667 178.914 55.4C179.368 55.12 179.594 54.7133 179.594 54.18C179.594 53.7933 179.474 53.5067 179.234 53.32C179.008 53.1333 178.681 52.98 178.254 52.86C177.828 52.7267 177.321 52.58 176.734 52.42C176.014 52.2067 175.408 51.98 174.914 51.74C174.421 51.5 174.048 51.2 173.794 50.84C173.541 50.48 173.414 50.0267 173.414 49.48C173.414 48.8133 173.588 48.2533 173.934 47.8C174.281 47.3333 174.754 46.98 175.354 46.74C175.968 46.5 176.661 46.38 177.434 46.38C178.208 46.38 178.908 46.5 179.534 46.74C180.161 46.98 180.701 47.3333 181.154 47.8L180.354 49.02C179.941 48.5933 179.488 48.28 178.994 48.08C178.501 47.8667 177.948 47.76 177.334 47.76C176.974 47.76 176.621 47.8067 176.274 47.9C175.928 47.98 175.641 48.1333 175.414 48.36C175.188 48.5733 175.074 48.88 175.074 49.28C175.074 49.6133 175.161 49.88 175.334 50.08C175.521 50.2667 175.788 50.4267 176.134 50.56C176.494 50.6933 176.928 50.84 177.434 51C178.221 51.2267 178.901 51.4533 179.474 51.68C180.061 51.9067 180.514 52.2 180.834 52.56C181.154 52.92 181.314 53.42 181.314 54.06C181.314 55.0467 180.941 55.82 180.194 56.38C179.448 56.9267 178.461 57.2 177.234 57.2Z" fill="white"/>
</svg>
