<svg width="369" height="556" viewBox="0 0 369 556" fill="none" xmlns="http://www.w3.org/2000/svg">
<path d="M54.1 452H61.7L90.7 523H81.1L72.7 502.2H42.9L34.6 523H25L54.1 452ZM70.7 495.2L57.9 462.4L44.7 495.2H70.7ZM93.9109 497C93.9109 492.067 94.9109 487.567 96.9109 483.5C98.9776 479.367 101.778 476.067 105.311 473.6C108.911 471.133 113.011 469.9 117.611 469.9C121.811 469.9 125.578 471 128.911 473.2C132.244 475.4 134.844 478.067 136.711 481.2V450H145.511V513C145.511 514.067 145.711 514.867 146.111 515.4C146.578 515.867 147.311 516.133 148.311 516.2V523C146.644 523.267 145.344 523.4 144.411 523.4C142.678 523.4 141.144 522.8 139.811 521.6C138.544 520.4 137.911 519.067 137.911 517.6V513.2C135.844 516.533 133.078 519.167 129.611 521.1C126.144 523.033 122.544 524 118.811 524C115.211 524 111.878 523.3 108.811 521.9C105.811 520.433 103.178 518.433 100.911 515.9C98.7109 513.367 96.9776 510.5 95.7109 507.3C94.5109 504.033 93.9109 500.6 93.9109 497ZM136.711 504.7V489.7C135.911 487.433 134.611 485.4 132.811 483.6C131.011 481.733 128.978 480.267 126.711 479.2C124.511 478.067 122.311 477.5 120.111 477.5C117.511 477.5 115.144 478.067 113.011 479.2C110.944 480.267 109.144 481.733 107.611 483.6C106.144 485.4 105.011 487.467 104.211 489.8C103.411 492.133 103.011 494.567 103.011 497.1C103.011 499.7 103.444 502.167 104.311 504.5C105.244 506.833 106.511 508.9 108.111 510.7C109.778 512.5 111.678 513.9 113.811 514.9C116.011 515.9 118.378 516.4 120.911 516.4C122.511 516.4 124.144 516.1 125.811 515.5C127.544 514.9 129.178 514.067 130.711 513C132.244 511.933 133.544 510.7 134.611 509.3C135.678 507.833 136.378 506.3 136.711 504.7ZM238.902 523H230.102V493.8C230.102 488.333 229.202 484.3 227.402 481.7C225.668 479.1 223.068 477.8 219.602 477.8C216.068 477.8 212.868 479.1 210.002 481.7C207.135 484.233 205.102 487.533 203.902 491.6V523H195.102V493.8C195.102 488.267 194.235 484.233 192.502 481.7C190.768 479.1 188.168 477.8 184.702 477.8C181.235 477.8 178.035 479.067 175.102 481.6C172.235 484.067 170.202 487.367 169.002 491.5V523H160.202V470.8H168.202V482C170.335 478.133 173.102 475.167 176.502 473.1C179.902 470.967 183.735 469.9 188.002 469.9C192.335 469.9 195.802 471.1 198.402 473.5C201.002 475.833 202.602 478.867 203.202 482.6C205.535 478.467 208.368 475.333 211.702 473.2C215.035 471 218.835 469.9 223.102 469.9C226.102 469.9 228.602 470.467 230.602 471.6C232.668 472.667 234.302 474.2 235.502 476.2C236.702 478.133 237.568 480.433 238.102 483.1C238.635 485.767 238.902 488.667 238.902 491.8V523ZM252.584 523V470.8H261.384V523H252.584ZM252.584 461V450H261.384V461H252.584ZM320.931 523H312.131V493.8C312.131 488.267 311.265 484.233 309.531 481.7C307.865 479.1 305.298 477.8 301.831 477.8C299.431 477.8 297.031 478.4 294.631 479.6C292.298 480.8 290.198 482.433 288.331 484.5C286.531 486.5 285.231 488.833 284.431 491.5V523H275.631V470.8H283.631V482C285.031 479.533 286.831 477.4 289.031 475.6C291.231 473.8 293.731 472.4 296.531 471.4C299.331 470.4 302.265 469.9 305.331 469.9C308.331 469.9 310.831 470.467 312.831 471.6C314.898 472.667 316.498 474.2 317.631 476.2C318.831 478.133 319.665 480.433 320.131 483.1C320.665 485.767 320.931 488.667 320.931 491.8V523Z" fill="white"/>
<path d="M184.5 0C82.6769 0 0.133789 82.5439 0.133789 184.366C0.133789 276.9 68.3052 353.513 157.166 366.719L368.794 179.135C366.024 79.7319 284.573 0 184.5 0Z" fill="#71E2F0"/>
<path d="M368.866 184.633C368.866 182.794 368.832 180.964 368.778 179.138L244.783 55.1438L123.977 175.949L177.675 229.648L79.6445 289.489L157.13 366.974C166.061 368.303 175.199 369 184.5 369C286.322 368.999 368.866 286.456 368.866 184.633Z" fill="#38C6D9"/>
<path d="M184.381 30.1255C231.56 30.1255 269.802 68.3678 269.802 115.547C269.802 162.726 231.56 200.969 184.381 200.969L154.408 115.547L184.381 30.1255Z" fill="#366796"/>
<path d="M184.381 30.1255V200.969C137.201 200.969 98.959 162.726 98.959 115.547C98.959 68.3678 137.201 30.1255 184.381 30.1255Z" fill="#5488A8"/>
<path d="M259.609 217.001C280.09 227.117 298.221 241.291 312.982 258.46C287.349 302.813 239.412 332.661 184.5 332.661L168.468 258.799L245.249 217L259.609 217.001Z" fill="#121149"/>
<path d="M109.391 217.001C88.9101 227.117 70.7789 241.291 56.0176 258.46C81.6501 302.813 129.588 332.661 184.5 332.661V247.06L123.751 217L109.391 217.001Z" fill="#366796"/>
<path d="M222.575 217.001L176.484 247.06L184.5 277.748L245.248 217L222.575 217.001Z" fill="#366796"/>
<path d="M146.424 217.001L184.5 247.06V277.748L123.751 217L146.424 217.001Z" fill="#5488A8"/>
<path d="M184.5 217L176.484 233.266L184.5 255.076L222.575 217H184.5Z" fill="#C2FBFF"/>
<path d="M146.424 217L184.5 255.076V217H146.424Z" fill="white"/>
</svg>
