<svg width="224" height="76" viewBox="0 0 224 76" fill="none" xmlns="http://www.w3.org/2000/svg">
<rect width="224" height="76" rx="38" fill="#6A6A6A" fill-opacity="0.45"/>
<path d="M52.7236 22.78C52.5636 22.5933 52.3503 22.4133 52.0836 22.24C51.8169 22.0667 51.5169 21.9133 51.1836 21.78C50.8503 21.6333 50.4836 21.52 50.0836 21.44C49.6969 21.3467 49.2903 21.3 48.8636 21.3C47.7703 21.3 46.9636 21.5067 46.4436 21.92C45.9236 22.3333 45.6636 22.9 45.6636 23.62C45.6636 24.1267 45.7969 24.5267 46.0636 24.82C46.3303 25.1133 46.7369 25.3533 47.2836 25.54C47.8436 25.7267 48.5503 25.92 49.4036 26.12C50.3903 26.3333 51.2436 26.5933 51.9636 26.9C52.6836 27.2067 53.2369 27.62 53.6236 28.14C54.0103 28.6467 54.2036 29.3267 54.2036 30.18C54.2036 30.86 54.0703 31.4533 53.8036 31.96C53.5503 32.4533 53.1903 32.8667 52.7236 33.2C52.2569 33.52 51.7103 33.76 51.0836 33.92C50.4569 34.0667 49.7769 34.14 49.0436 34.14C48.3236 34.14 47.6169 34.0667 46.9236 33.92C46.2436 33.76 45.5969 33.5333 44.9836 33.24C44.3703 32.9467 43.7969 32.58 43.2636 32.14L44.1236 30.62C44.3369 30.8467 44.6103 31.0733 44.9436 31.3C45.2903 31.5133 45.6769 31.7133 46.1036 31.9C46.5436 32.0867 47.0169 32.24 47.5236 32.36C48.0303 32.4667 48.5503 32.52 49.0836 32.52C50.0969 32.52 50.8836 32.34 51.4436 31.98C52.0036 31.6067 52.2836 31.0667 52.2836 30.36C52.2836 29.8267 52.1236 29.4 51.8036 29.08C51.4969 28.76 51.0369 28.4933 50.4236 28.28C49.8103 28.0667 49.0636 27.8533 48.1836 27.64C47.2236 27.4 46.4169 27.14 45.7636 26.86C45.1103 26.5667 44.6169 26.1867 44.2836 25.72C43.9636 25.2533 43.8036 24.6467 43.8036 23.9C43.8036 22.9933 44.0236 22.2267 44.4636 21.6C44.9036 20.9733 45.5103 20.5 46.2836 20.18C47.0569 19.86 47.9303 19.7 48.9036 19.7C49.5436 19.7 50.1369 19.7667 50.6836 19.9C51.2436 20.0333 51.7636 20.22 52.2436 20.46C52.7236 20.7 53.1636 20.9867 53.5636 21.32L52.7236 22.78ZM60.9111 34.2C60.1244 34.2 59.4044 34.06 58.7511 33.78C58.1111 33.4867 57.5511 33.0933 57.0711 32.6C56.6044 32.0933 56.2378 31.5133 55.9711 30.86C55.7178 30.2067 55.5911 29.5133 55.5911 28.78C55.5911 27.7933 55.8178 26.8933 56.2711 26.08C56.7244 25.2667 57.3511 24.6133 58.1511 24.12C58.9644 23.6267 59.8911 23.38 60.9311 23.38C61.9844 23.38 62.8978 23.6333 63.6711 24.14C64.4578 24.6333 65.0644 25.2867 65.4911 26.1C65.9311 26.9 66.1511 27.7667 66.1511 28.7C66.1511 28.8333 66.1444 28.9667 66.1311 29.1C66.1311 29.22 66.1244 29.3133 66.1111 29.38H57.4511C57.5044 30.06 57.6911 30.6667 58.0111 31.2C58.3444 31.72 58.7711 32.1333 59.2911 32.44C59.8111 32.7333 60.3711 32.88 60.9711 32.88C61.6111 32.88 62.2111 32.72 62.7711 32.4C63.3444 32.08 63.7378 31.66 63.9511 31.14L65.4711 31.56C65.2444 32.0667 64.9044 32.52 64.4511 32.92C64.0111 33.32 63.4844 33.6333 62.8711 33.86C62.2711 34.0867 61.6178 34.2 60.9111 34.2ZM57.3911 28.16H64.5111C64.4578 27.48 64.2644 26.88 63.9311 26.36C63.5978 25.84 63.1711 25.4333 62.6511 25.14C62.1311 24.8467 61.5578 24.7 60.9311 24.7C60.3178 24.7 59.7511 24.8467 59.2311 25.14C58.7111 25.4333 58.2844 25.84 57.9511 26.36C57.6311 26.88 57.4444 27.48 57.3911 28.16ZM72.7275 34.2C71.9408 34.2 71.2208 34.06 70.5675 33.78C69.9275 33.4867 69.3675 33.0933 68.8875 32.6C68.4208 32.0933 68.0542 31.5133 67.7875 30.86C67.5342 30.2067 67.4075 29.5133 67.4075 28.78C67.4075 27.7933 67.6342 26.8933 68.0875 26.08C68.5408 25.2667 69.1675 24.6133 69.9675 24.12C70.7808 23.6267 71.7075 23.38 72.7475 23.38C73.8008 23.38 74.7142 23.6333 75.4875 24.14C76.2742 24.6333 76.8808 25.2867 77.3075 26.1C77.7475 26.9 77.9675 27.7667 77.9675 28.7C77.9675 28.8333 77.9608 28.9667 77.9475 29.1C77.9475 29.22 77.9408 29.3133 77.9275 29.38H69.2675C69.3208 30.06 69.5075 30.6667 69.8275 31.2C70.1608 31.72 70.5875 32.1333 71.1075 32.44C71.6275 32.7333 72.1875 32.88 72.7875 32.88C73.4275 32.88 74.0275 32.72 74.5875 32.4C75.1608 32.08 75.5542 31.66 75.7675 31.14L77.2875 31.56C77.0608 32.0667 76.7208 32.52 76.2675 32.92C75.8275 33.32 75.3008 33.6333 74.6875 33.86C74.0875 34.0867 73.4342 34.2 72.7275 34.2ZM69.2075 28.16H76.3275C76.2742 27.48 76.0808 26.88 75.7475 26.36C75.4142 25.84 74.9875 25.4333 74.4675 25.14C73.9475 24.8467 73.3742 24.7 72.7475 24.7C72.1342 24.7 71.5675 24.8467 71.0475 25.14C70.5275 25.4333 70.1008 25.84 69.7675 26.36C69.4475 26.88 69.2608 27.48 69.2075 28.16ZM84.3425 26.8C84.3425 25.9333 84.4892 25.0867 84.7825 24.26C85.0892 23.42 85.5292 22.66 86.1025 21.98C86.6892 21.2867 87.4025 20.74 88.2425 20.34C89.0825 19.9267 90.0358 19.72 91.1025 19.72C92.3692 19.72 93.4558 20.0133 94.3625 20.6C95.2692 21.1733 95.9425 21.9133 96.3825 22.82L94.9625 23.74C94.6825 23.14 94.3225 22.6667 93.8825 22.32C93.4558 21.96 92.9892 21.7067 92.4825 21.56C91.9892 21.4133 91.5025 21.34 91.0225 21.34C90.2358 21.34 89.5358 21.5 88.9225 21.82C88.3225 22.14 87.8158 22.5667 87.4025 23.1C86.9892 23.6333 86.6758 24.2333 86.4625 24.9C86.2625 25.5533 86.1625 26.2133 86.1625 26.88C86.1625 27.6133 86.2825 28.32 86.5225 29C86.7758 29.68 87.1225 30.28 87.5625 30.8C88.0025 31.32 88.5225 31.7333 89.1225 32.04C89.7225 32.3467 90.3758 32.5 91.0825 32.5C91.5758 32.5 92.0825 32.4133 92.6025 32.24C93.1225 32.0667 93.6092 31.8 94.0625 31.44C94.5158 31.0667 94.8758 30.5867 95.1425 30L96.6425 30.82C96.3492 31.5267 95.8958 32.1267 95.2825 32.62C94.6692 33.1133 93.9825 33.4867 93.2225 33.74C92.4758 33.9933 91.7358 34.12 91.0025 34.12C90.0292 34.12 89.1358 33.9133 88.3225 33.5C87.5092 33.0733 86.8025 32.5133 86.2025 31.82C85.6158 31.1133 85.1558 30.3267 84.8225 29.46C84.5025 28.58 84.3425 27.6933 84.3425 26.8ZM103.175 34.2C102.389 34.2 101.675 34.06 101.035 33.78C100.395 33.4867 99.842 33.0933 99.3753 32.6C98.9086 32.0933 98.5486 31.5133 98.2953 30.86C98.042 30.2067 97.9153 29.52 97.9153 28.8C97.9153 28.0667 98.042 27.3733 98.2953 26.72C98.5486 26.0667 98.9086 25.4933 99.3753 25C99.842 24.4933 100.395 24.1 101.035 23.82C101.689 23.5267 102.402 23.38 103.175 23.38C103.962 23.38 104.675 23.5267 105.315 23.82C105.955 24.1 106.509 24.4933 106.975 25C107.455 25.4933 107.822 26.0667 108.075 26.72C108.329 27.3733 108.455 28.0667 108.455 28.8C108.455 29.52 108.329 30.2067 108.075 30.86C107.822 31.5133 107.462 32.0933 106.995 32.6C106.529 33.0933 105.969 33.4867 105.315 33.78C104.675 34.06 103.962 34.2 103.175 34.2ZM99.7153 28.82C99.7153 29.54 99.8686 30.1933 100.175 30.78C100.495 31.3667 100.915 31.8333 101.435 32.18C101.955 32.5133 102.535 32.68 103.175 32.68C103.815 32.68 104.395 32.5067 104.915 32.16C105.449 31.8133 105.869 31.3467 106.175 30.76C106.495 30.16 106.655 29.5 106.655 28.78C106.655 28.06 106.495 27.4067 106.175 26.82C105.869 26.2333 105.449 25.7667 104.915 25.42C104.395 25.0733 103.815 24.9 103.175 24.9C102.535 24.9 101.955 25.08 101.435 25.44C100.915 25.7867 100.495 26.2533 100.175 26.84C99.8686 27.4267 99.7153 28.0867 99.7153 28.82ZM126.328 34H124.568V28.16C124.568 27.0667 124.388 26.26 124.028 25.74C123.681 25.22 123.161 24.96 122.468 24.96C121.761 24.96 121.121 25.22 120.548 25.74C119.975 26.2467 119.568 26.9067 119.328 27.72V34H117.568V28.16C117.568 27.0533 117.395 26.2467 117.048 25.74C116.701 25.22 116.181 24.96 115.488 24.96C114.795 24.96 114.155 25.2133 113.568 25.72C112.995 26.2133 112.588 26.8733 112.348 27.7V34H110.588V23.56H112.188V25.8C112.615 25.0267 113.168 24.4333 113.848 24.02C114.528 23.5933 115.295 23.38 116.148 23.38C117.015 23.38 117.708 23.62 118.228 24.1C118.748 24.5667 119.068 25.1733 119.188 25.92C119.655 25.0933 120.221 24.4667 120.888 24.04C121.555 23.6 122.315 23.38 123.168 23.38C123.768 23.38 124.268 23.4933 124.668 23.72C125.081 23.9333 125.408 24.24 125.648 24.64C125.888 25.0267 126.061 25.4867 126.168 26.02C126.275 26.5533 126.328 27.1333 126.328 27.76V34ZM134.685 34.2C133.831 34.2 133.071 33.9867 132.405 33.56C131.738 33.1333 131.211 32.5933 130.825 31.94V38.26H129.065V23.56H130.625V25.52C131.038 24.88 131.578 24.3667 132.245 23.98C132.911 23.58 133.638 23.38 134.425 23.38C135.145 23.38 135.805 23.5267 136.405 23.82C137.005 24.1133 137.525 24.5133 137.965 25.02C138.405 25.5267 138.745 26.1067 138.985 26.76C139.238 27.4 139.365 28.0733 139.365 28.78C139.365 29.7667 139.165 30.6733 138.765 31.5C138.378 32.3267 137.831 32.9867 137.125 33.48C136.418 33.96 135.605 34.2 134.685 34.2ZM134.145 32.68C134.665 32.68 135.131 32.5733 135.545 32.36C135.971 32.1333 136.331 31.84 136.625 31.48C136.931 31.1067 137.165 30.6867 137.325 30.22C137.485 29.7533 137.565 29.2733 137.565 28.78C137.565 28.26 137.471 27.7667 137.285 27.3C137.111 26.8333 136.858 26.42 136.525 26.06C136.205 25.7 135.825 25.42 135.385 25.22C134.958 25.0067 134.491 24.9 133.985 24.9C133.665 24.9 133.331 24.96 132.985 25.08C132.651 25.2 132.331 25.3733 132.025 25.6C131.718 25.8133 131.458 26.06 131.245 26.34C131.031 26.62 130.891 26.92 130.825 27.24V30.22C131.025 30.6733 131.291 31.0867 131.625 31.46C131.958 31.8333 132.345 32.1333 132.785 32.36C133.225 32.5733 133.678 32.68 134.145 32.68ZM141.565 19.4H143.325V31.3C143.325 31.8733 143.405 32.2267 143.565 32.36C143.725 32.4933 143.919 32.56 144.145 32.56C144.425 32.56 144.692 32.5333 144.945 32.48C145.199 32.4133 145.412 32.3467 145.585 32.28L145.865 33.72C145.572 33.84 145.225 33.94 144.825 34.02C144.425 34.1 144.072 34.14 143.765 34.14C143.085 34.14 142.545 33.9467 142.145 33.56C141.759 33.1733 141.565 32.6333 141.565 31.94V19.4ZM151.868 34.2C151.081 34.2 150.361 34.06 149.708 33.78C149.068 33.4867 148.508 33.0933 148.028 32.6C147.561 32.0933 147.195 31.5133 146.928 30.86C146.675 30.2067 146.548 29.5133 146.548 28.78C146.548 27.7933 146.775 26.8933 147.228 26.08C147.681 25.2667 148.308 24.6133 149.108 24.12C149.921 23.6267 150.848 23.38 151.888 23.38C152.941 23.38 153.855 23.6333 154.628 24.14C155.415 24.6333 156.021 25.2867 156.448 26.1C156.888 26.9 157.108 27.7667 157.108 28.7C157.108 28.8333 157.101 28.9667 157.088 29.1C157.088 29.22 157.081 29.3133 157.068 29.38H148.408C148.461 30.06 148.648 30.6667 148.968 31.2C149.301 31.72 149.728 32.1333 150.248 32.44C150.768 32.7333 151.328 32.88 151.928 32.88C152.568 32.88 153.168 32.72 153.728 32.4C154.301 32.08 154.695 31.66 154.908 31.14L156.428 31.56C156.201 32.0667 155.861 32.52 155.408 32.92C154.968 33.32 154.441 33.6333 153.828 33.86C153.228 34.0867 152.575 34.2 151.868 34.2ZM148.348 28.16H155.468C155.415 27.48 155.221 26.88 154.888 26.36C154.555 25.84 154.128 25.4333 153.608 25.14C153.088 24.8467 152.515 24.7 151.888 24.7C151.275 24.7 150.708 24.8467 150.188 25.14C149.668 25.4333 149.241 25.84 148.908 26.36C148.588 26.88 148.401 27.48 148.348 28.16ZM164.367 33.48C164.22 33.5467 164.02 33.6333 163.767 33.74C163.514 33.8467 163.22 33.94 162.887 34.02C162.554 34.1 162.2 34.14 161.827 34.14C161.4 34.14 161.007 34.0667 160.647 33.92C160.287 33.76 160 33.52 159.787 33.2C159.574 32.8667 159.467 32.4533 159.467 31.96V24.94H158.047V23.56H159.467V20.08H161.227V23.56H163.567V24.94H161.227V31.42C161.254 31.7933 161.38 32.0733 161.607 32.26C161.834 32.4333 162.1 32.52 162.407 32.52C162.754 32.52 163.074 32.46 163.367 32.34C163.66 32.22 163.854 32.1333 163.947 32.08L164.367 33.48ZM170.481 34.2C169.695 34.2 168.975 34.06 168.321 33.78C167.681 33.4867 167.121 33.0933 166.641 32.6C166.175 32.0933 165.808 31.5133 165.541 30.86C165.288 30.2067 165.161 29.5133 165.161 28.78C165.161 27.7933 165.388 26.8933 165.841 26.08C166.295 25.2667 166.921 24.6133 167.721 24.12C168.535 23.6267 169.461 23.38 170.501 23.38C171.555 23.38 172.468 23.6333 173.241 24.14C174.028 24.6333 174.635 25.2867 175.061 26.1C175.501 26.9 175.721 27.7667 175.721 28.7C175.721 28.8333 175.715 28.9667 175.701 29.1C175.701 29.22 175.695 29.3133 175.681 29.38H167.021C167.075 30.06 167.261 30.6667 167.581 31.2C167.915 31.72 168.341 32.1333 168.861 32.44C169.381 32.7333 169.941 32.88 170.541 32.88C171.181 32.88 171.781 32.72 172.341 32.4C172.915 32.08 173.308 31.66 173.521 31.14L175.041 31.56C174.815 32.0667 174.475 32.52 174.021 32.92C173.581 33.32 173.055 33.6333 172.441 33.86C171.841 34.0867 171.188 34.2 170.481 34.2ZM166.961 28.16H174.081C174.028 27.48 173.835 26.88 173.501 26.36C173.168 25.84 172.741 25.4333 172.221 25.14C171.701 24.8467 171.128 24.7 170.501 24.7C169.888 24.7 169.321 24.8467 168.801 25.14C168.281 25.4333 167.855 25.84 167.521 26.36C167.201 26.88 167.015 27.48 166.961 28.16ZM52.8406 57V42.8H54.6406V55.4H62.5606V57H52.8406ZM68.7041 57.2C67.9174 57.2 67.1974 57.06 66.5441 56.78C65.9041 56.4867 65.3441 56.0933 64.8641 55.6C64.3974 55.0933 64.0307 54.5133 63.7641 53.86C63.5107 53.2067 63.3841 52.5133 63.3841 51.78C63.3841 50.7933 63.6107 49.8933 64.0641 49.08C64.5174 48.2667 65.1441 47.6133 65.9441 47.12C66.7574 46.6267 67.6841 46.38 68.7241 46.38C69.7774 46.38 70.6907 46.6333 71.4641 47.14C72.2507 47.6333 72.8574 48.2867 73.2841 49.1C73.7241 49.9 73.9441 50.7667 73.9441 51.7C73.9441 51.8333 73.9374 51.9667 73.9241 52.1C73.9241 52.22 73.9174 52.3133 73.9041 52.38H65.2441C65.2974 53.06 65.4841 53.6667 65.8041 54.2C66.1374 54.72 66.5641 55.1333 67.0841 55.44C67.6041 55.7333 68.1641 55.88 68.7641 55.88C69.4041 55.88 70.0041 55.72 70.5641 55.4C71.1374 55.08 71.5307 54.66 71.7441 54.14L73.2641 54.56C73.0374 55.0667 72.6974 55.52 72.2441 55.92C71.8041 56.32 71.2774 56.6333 70.6641 56.86C70.0641 57.0867 69.4107 57.2 68.7041 57.2ZM65.1841 51.16H72.3041C72.2507 50.48 72.0574 49.88 71.7241 49.36C71.3907 48.84 70.9641 48.4333 70.4441 48.14C69.9241 47.8467 69.3507 47.7 68.7241 47.7C68.1107 47.7 67.5441 47.8467 67.0241 48.14C66.5041 48.4333 66.0774 48.84 65.7441 49.36C65.4241 49.88 65.2374 50.48 65.1841 51.16ZM78.627 57L74.527 46.56H76.367L79.647 55.32L82.927 46.56H84.647L80.547 57H78.627ZM90.6767 57.2C89.8901 57.2 89.1701 57.06 88.5167 56.78C87.8767 56.4867 87.3167 56.0933 86.8367 55.6C86.3701 55.0933 86.0034 54.5133 85.7367 53.86C85.4834 53.2067 85.3567 52.5133 85.3567 51.78C85.3567 50.7933 85.5834 49.8933 86.0367 49.08C86.4901 48.2667 87.1167 47.6133 87.9167 47.12C88.7301 46.6267 89.6567 46.38 90.6967 46.38C91.7501 46.38 92.6634 46.6333 93.4367 47.14C94.2234 47.6333 94.8301 48.2867 95.2567 49.1C95.6967 49.9 95.9167 50.7667 95.9167 51.7C95.9167 51.8333 95.9101 51.9667 95.8967 52.1C95.8967 52.22 95.8901 52.3133 95.8767 52.38H87.2167C87.2701 53.06 87.4567 53.6667 87.7767 54.2C88.1101 54.72 88.5367 55.1333 89.0567 55.44C89.5767 55.7333 90.1367 55.88 90.7367 55.88C91.3767 55.88 91.9767 55.72 92.5367 55.4C93.1101 55.08 93.5034 54.66 93.7167 54.14L95.2367 54.56C95.0101 55.0667 94.6701 55.52 94.2167 55.92C93.7767 56.32 93.2501 56.6333 92.6367 56.86C92.0367 57.0867 91.3834 57.2 90.6767 57.2ZM87.1567 51.16H94.2767C94.2234 50.48 94.0301 49.88 93.6967 49.36C93.3634 48.84 92.9367 48.4333 92.4167 48.14C91.8967 47.8467 91.3234 47.7 90.6967 47.7C90.0834 47.7 89.5167 47.8467 88.9967 48.14C88.4767 48.4333 88.0501 48.84 87.7167 49.36C87.3967 49.88 87.2101 50.48 87.1567 51.16ZM97.9131 42.4H99.6731V54.3C99.6731 54.8733 99.7531 55.2267 99.9131 55.36C100.073 55.4933 100.266 55.56 100.493 55.56C100.773 55.56 101.04 55.5333 101.293 55.48C101.546 55.4133 101.76 55.3467 101.933 55.28L102.213 56.72C101.92 56.84 101.573 56.94 101.173 57.02C100.773 57.1 100.42 57.14 100.113 57.14C99.4331 57.14 98.8931 56.9467 98.4931 56.56C98.1065 56.1733 97.9131 55.6333 97.9131 54.94V42.4ZM119.749 42.8V57H117.949V50.54H110.129V57H108.329V42.8H110.129V48.94H117.949V42.8H119.749ZM122.873 57V46.56H124.633V57H122.873ZM122.873 44.6V42.4H124.633V44.6H122.873ZM131.062 57.2C130.196 57.2 129.383 57.06 128.623 56.78C127.863 56.4867 127.209 56.0533 126.663 55.48L127.343 54.24C127.943 54.8 128.543 55.2 129.143 55.44C129.743 55.68 130.356 55.8 130.983 55.8C131.703 55.8 132.289 55.6667 132.743 55.4C133.196 55.12 133.423 54.7133 133.423 54.18C133.423 53.7933 133.303 53.5067 133.063 53.32C132.836 53.1333 132.509 52.98 132.083 52.86C131.656 52.7267 131.149 52.58 130.563 52.42C129.843 52.2067 129.236 51.98 128.743 51.74C128.249 51.5 127.876 51.2 127.623 50.84C127.369 50.48 127.243 50.0267 127.243 49.48C127.243 48.8133 127.416 48.2533 127.763 47.8C128.109 47.3333 128.583 46.98 129.183 46.74C129.796 46.5 130.489 46.38 131.263 46.38C132.036 46.38 132.736 46.5 133.363 46.74C133.989 46.98 134.529 47.3333 134.983 47.8L134.183 49.02C133.769 48.5933 133.316 48.28 132.823 48.08C132.329 47.8667 131.776 47.76 131.163 47.76C130.803 47.76 130.449 47.8067 130.103 47.9C129.756 47.98 129.469 48.1333 129.243 48.36C129.016 48.5733 128.903 48.88 128.903 49.28C128.903 49.6133 128.989 49.88 129.163 50.08C129.349 50.2667 129.616 50.4267 129.963 50.56C130.323 50.6933 130.756 50.84 131.263 51C132.049 51.2267 132.729 51.4533 133.303 51.68C133.889 51.9067 134.343 52.2 134.663 52.56C134.983 52.92 135.143 53.42 135.143 54.06C135.143 55.0467 134.769 55.82 134.023 56.38C133.276 56.9267 132.289 57.2 131.062 57.2ZM142.648 56.48C142.501 56.5467 142.301 56.6333 142.048 56.74C141.795 56.8467 141.501 56.94 141.168 57.02C140.835 57.1 140.481 57.14 140.108 57.14C139.681 57.14 139.288 57.0667 138.928 56.92C138.568 56.76 138.281 56.52 138.068 56.2C137.855 55.8667 137.748 55.4533 137.748 54.96V47.94H136.328V46.56H137.748V43.08H139.508V46.56H141.848V47.94H139.508V54.42C139.535 54.7933 139.661 55.0733 139.888 55.26C140.115 55.4333 140.381 55.52 140.688 55.52C141.035 55.52 141.355 55.46 141.648 55.34C141.941 55.22 142.135 55.1333 142.228 55.08L142.648 56.48ZM148.703 57.2C147.916 57.2 147.203 57.06 146.563 56.78C145.923 56.4867 145.369 56.0933 144.903 55.6C144.436 55.0933 144.076 54.5133 143.823 53.86C143.569 53.2067 143.443 52.52 143.443 51.8C143.443 51.0667 143.569 50.3733 143.823 49.72C144.076 49.0667 144.436 48.4933 144.903 48C145.369 47.4933 145.923 47.1 146.563 46.82C147.216 46.5267 147.929 46.38 148.703 46.38C149.489 46.38 150.203 46.5267 150.843 46.82C151.483 47.1 152.036 47.4933 152.503 48C152.983 48.4933 153.349 49.0667 153.603 49.72C153.856 50.3733 153.983 51.0667 153.983 51.8C153.983 52.52 153.856 53.2067 153.603 53.86C153.349 54.5133 152.989 55.0933 152.523 55.6C152.056 56.0933 151.496 56.4867 150.843 56.78C150.203 57.06 149.489 57.2 148.703 57.2ZM145.243 51.82C145.243 52.54 145.396 53.1933 145.703 53.78C146.023 54.3667 146.443 54.8333 146.963 55.18C147.483 55.5133 148.063 55.68 148.703 55.68C149.343 55.68 149.923 55.5067 150.443 55.16C150.976 54.8133 151.396 54.3467 151.703 53.76C152.023 53.16 152.183 52.5 152.183 51.78C152.183 51.06 152.023 50.4067 151.703 49.82C151.396 49.2333 150.976 48.7667 150.443 48.42C149.923 48.0733 149.343 47.9 148.703 47.9C148.063 47.9 147.483 48.08 146.963 48.44C146.443 48.7867 146.023 49.2533 145.703 49.84C145.396 50.4267 145.243 51.0867 145.243 51.82ZM161.635 48.1C160.755 48.1133 159.975 48.34 159.295 48.78C158.629 49.2067 158.155 49.8 157.875 50.56V57H156.115V46.56H157.755V48.98C158.115 48.26 158.589 47.68 159.175 47.24C159.775 46.7867 160.402 46.5333 161.055 46.48C161.189 46.48 161.302 46.48 161.395 46.48C161.489 46.48 161.569 46.4867 161.635 46.5V48.1ZM163.861 59.84C164.034 59.8533 164.208 59.8667 164.381 59.88C164.554 59.9067 164.688 59.92 164.781 59.92C164.994 59.92 165.181 59.8467 165.341 59.7C165.501 59.5533 165.674 59.2667 165.861 58.84C166.061 58.4267 166.314 57.8133 166.621 57L162.201 46.56H164.061L167.581 55.22L170.761 46.56H172.501L167.421 59.74C167.301 60.0467 167.121 60.3333 166.881 60.6C166.654 60.88 166.361 61.1 166.001 61.26C165.641 61.42 165.208 61.5 164.701 61.5C164.581 61.5 164.454 61.4933 164.321 61.48C164.201 61.4667 164.048 61.44 163.861 61.4V59.84Z" fill="white"/>
</svg>
